<svg width="360" height="753" viewBox="0 0 360 753" fill="none" xmlns="http://www.w3.org/2000/svg">
<rect width="360" height="753" fill="#F8A6A2"/>
<path d="M100.46 152.62H206.41V166.4H100.46V152.62ZM106.44 172.9H201.21V186.03H106.44V172.9ZM95.26 192.79H211.61V206.7H95.26V192.79ZM94.35 214.63H213.04V228.28H94.35V214.63ZM145.18 161.2H161.17V203.84H145.18V161.2ZM116.19 141.7L130.1 136.24C134.13 140.66 138.03 146.77 139.72 151.32L125.16 157.56C123.86 153.01 120.09 146.38 116.19 141.7ZM174.43 136.24L191.07 140.4C187.04 146.38 182.88 151.84 179.63 155.61L165.46 151.58C168.58 147.29 172.35 140.79 174.43 136.24ZM143.36 204.23H159.87C156.88 233.22 149.08 250.64 99.81 258.57C98.64 254.41 95 248.04 92.01 244.66C136.34 238.81 141.02 226.59 143.36 204.23ZM163.51 218.79C171.18 235.04 187.56 242.58 215.77 244.53C212.52 247.91 208.36 254.54 206.41 258.96C175.21 255.19 159.09 244.4 149.21 221.26L163.51 218.79ZM139.2 344.2H213.95V359.02H139.2V344.2ZM143.36 313.13H209.79V327.95H143.36V313.13ZM167.28 294.67H183.01V415.31H167.28V294.67ZM165.72 353.3L178.07 356.94C170.14 378.13 156.62 397.24 139.98 407.77C137.64 404 132.96 398.41 129.45 395.42C145.31 387.1 158.83 370.46 165.72 353.3ZM184.31 352.78C190.68 369.03 202.77 385.93 215.64 395.03C211.87 398.02 206.67 403.87 204.07 408.03C191.07 396.46 179.5 376.31 172.61 356.55L184.31 352.78ZM104.49 304.94H135.82V382.94H104.49V367.86H121.65V319.89H104.49V304.94ZM96.56 304.94H110.73V393.47H96.56V304.94ZM136.73 457.91C135.95 463.37 135.3 470.13 135.04 475.33C134.39 489.37 133.48 518.36 133.48 534.48C133.48 547.61 141.28 551.9 151.42 551.9C172.87 551.9 186.39 539.55 195.88 525.38L207.71 539.81C199.26 552.29 180.8 569.58 151.16 569.58C129.84 569.58 116.19 560.22 116.19 537.99C116.19 520.57 117.36 486.51 117.36 475.33C117.36 469.09 116.84 462.85 115.8 457.78L136.73 457.91ZM122.17 625.18C121.26 629.73 120.61 637.4 120.61 641.04C120.61 649.49 120.61 659.11 121.39 668.6C123.21 687.32 127.11 700.19 135.3 700.19C141.54 700.19 146.61 684.85 149.08 674.58L162.21 690.31C153.5 713.06 145.44 720.86 135.04 720.86C120.61 720.86 108.26 708.12 104.62 673.28C103.32 661.32 103.19 645.98 103.19 638.05C103.19 634.54 103.06 628.95 102.15 624.92L122.17 625.18ZM187.17 628.04C199.52 642.99 209.53 675.49 210.96 695.38L193.8 702.14C191.85 681.08 184.83 649.62 170.66 633.5L187.17 628.04Z" fill="white" fill-opacity="0.17"/>
</svg>
