<svg width="86" height="17" viewBox="0 0 86 17" fill="none" xmlns="http://www.w3.org/2000/svg">
<path d="M6.8797 11.8816L10.4228 14.4478L9.48259 9.6112L12.6129 6.35701L8.49074 5.93734L6.8797 1.37598L5.26867 5.93734L1.14648 6.35701L4.27682 9.6112L3.33657 14.4478L6.8797 11.8816Z" fill="#FA9C00"/>
<path d="M24.9403 11.8816L28.4834 14.4478L27.5431 9.6112L30.6735 6.35701L26.5513 5.93734L24.9403 1.37598L23.3292 5.93734L19.207 6.35701L22.3374 9.6112L21.3971 14.4478L24.9403 11.8816Z" fill="#FA9C00"/>
<path d="M42.9988 11.8816L46.542 14.4478L45.6017 9.6112L48.7321 6.35701L44.6099 5.93734L42.9988 1.37598L41.3878 5.93734L37.2656 6.35701L40.396 9.6112L39.4557 14.4478L42.9988 11.8816Z" fill="#FA9C00"/>
<path d="M61.0594 11.8816L64.6025 14.4478L63.6623 9.6112L66.7926 6.35701L62.6704 5.93734L61.0594 1.37598L59.4484 5.93734L55.3262 6.35701L58.4565 9.6112L57.5163 14.4478L61.0594 11.8816Z" fill="#FA9C00"/>
<g clip-path="url(#clip0_40_772)">
<path d="M78.6199 10.7243L82.1631 13.2905L81.2228 8.45397L84.3532 5.19979L80.231 4.78011L78.6199 0.21875L77.0089 4.78011L72.8867 5.19979L76.0171 8.45397L75.0768 13.2905L78.6199 10.7243Z" fill="#FA9C00"/>
</g>
<defs>
<clipPath id="clip0_40_772">
<rect width="13.7597" height="16.5117" fill="white" transform="translate(72.2402)"/>
</clipPath>
</defs>
</svg>
